<svg xmlns="http://www.w3.org/2000/svg" viewBox="0 0 1010 370" width="1010" height="370" font-family="Helvetica, Arial, sans-serif">
<rect width="1010" height="370" fill="#ffffff"/>
<line x1="60" x2="990" y1="290.0" y2="290.0" stroke="#e3e8ea"/>
<text x="54" y="295.0" font-size="13" text-anchor="end" fill="#333">0</text>
<line x1="60" x2="990" y1="257.5" y2="257.5" stroke="#e3e8ea"/>
<text x="54" y="262.5" font-size="13" text-anchor="end" fill="#333">20</text>
<line x1="60" x2="990" y1="225.0" y2="225.0" stroke="#e3e8ea"/>
<text x="54" y="230.0" font-size="13" text-anchor="end" fill="#333">40</text>
<line x1="60" x2="990" y1="192.5" y2="192.5" stroke="#e3e8ea"/>
<text x="54" y="197.5" font-size="13" text-anchor="end" fill="#333">60</text>
<line x1="60" x2="990" y1="160.0" y2="160.0" stroke="#e3e8ea"/>
<text x="54" y="165.0" font-size="13" text-anchor="end" fill="#333">80</text>
<line x1="60" x2="990" y1="127.5" y2="127.5" stroke="#e3e8ea"/>
<text x="54" y="132.5" font-size="13" text-anchor="end" fill="#333">100</text>
<line x1="60" x2="990" y1="95.0" y2="95.0" stroke="#e3e8ea"/>
<text x="54" y="100.0" font-size="13" text-anchor="end" fill="#333">120</text>
<line x1="60" x2="990" y1="62.5" y2="62.5" stroke="#e3e8ea"/>
<text x="54" y="67.5" font-size="13" text-anchor="end" fill="#333">140</text>
<line x1="60" x2="990" y1="30.0" y2="30.0" stroke="#e3e8ea"/>
<text x="54" y="35.0" font-size="13" text-anchor="end" fill="#333">160</text>
<line x1="60" x2="60" y1="30" y2="290" stroke="#333" stroke-width="1.5"/>
<text x="16" y="160.0" font-size="14" fill="#333" transform="rotate(-90 16 160.0)" text-anchor="middle">Free energy (G)</text>
<path d="M88,208.8 L116,208.8 C146,208.8 150.0,184.4 180.0,184.4 C210.0,184.4 214,257.5 244,257.5 L272,257.5" fill="none" stroke="#0e5f68" stroke-width="3"/>
<text x="90" y="200.8" font-size="13" fill="#222">R 50</text>
<text x="270" y="249.5" font-size="13" text-anchor="end" fill="#222">P 20</text>
<text x="180.0" y="176.4" font-size="13" text-anchor="middle" fill="#222">peak 65</text>
<text x="180.0" y="320" font-size="17" font-weight="bold" text-anchor="middle" fill="#111">1</text>
<text x="180.0" y="340" font-size="12" text-anchor="middle" fill="#666">reaction progress</text>
<line x1="304" x2="304" y1="30" y2="290" stroke="#cfd8dc" stroke-dasharray="3 4"/>
<path d="M318,200.6 L346,200.6 C376,200.6 380.0,95.0 410.0,95.0 C440.0,95.0 444,249.4 474,249.4 L502,249.4" fill="none" stroke="#0e5f68" stroke-width="3"/>
<text x="320" y="192.6" font-size="13" fill="#222">R 55</text>
<text x="500" y="241.4" font-size="13" text-anchor="end" fill="#222">P 25</text>
<text x="410.0" y="87.0" font-size="13" text-anchor="middle" fill="#222">peak 120</text>
<text x="410.0" y="320" font-size="17" font-weight="bold" text-anchor="middle" fill="#111">2</text>
<text x="410.0" y="340" font-size="12" text-anchor="middle" fill="#666">reaction progress</text>
<line x1="534" x2="534" y1="30" y2="290" stroke="#cfd8dc" stroke-dasharray="3 4"/>
<path d="M548,257.5 L576,257.5 C606,257.5 610.0,228.2 640.0,228.2 C670.0,228.2 674,238.0 704,238.0 L732,238.0" fill="none" stroke="#0e5f68" stroke-width="3"/>
<text x="550" y="249.5" font-size="13" fill="#222">R 20</text>
<text x="730" y="230.0" font-size="13" text-anchor="end" fill="#222">P 32</text>
<text x="640.0" y="220.2" font-size="13" text-anchor="middle" fill="#222">peak 38</text>
<text x="640.0" y="320" font-size="17" font-weight="bold" text-anchor="middle" fill="#111">3</text>
<text x="640.0" y="340" font-size="12" text-anchor="middle" fill="#666">reaction progress</text>
<line x1="764" x2="764" y1="30" y2="290" stroke="#cfd8dc" stroke-dasharray="3 4"/>
<path d="M778,249.4 L806,249.4 C836,249.4 840.0,127.5 870.0,127.5 C900.0,127.5 904,192.5 934,192.5 L962,192.5" fill="none" stroke="#0e5f68" stroke-width="3"/>
<text x="780" y="241.4" font-size="13" fill="#222">R 25</text>
<text x="960" y="184.5" font-size="13" text-anchor="end" fill="#222">P 60</text>
<text x="870.0" y="119.5" font-size="13" text-anchor="middle" fill="#222">peak 100</text>
<text x="870.0" y="320" font-size="17" font-weight="bold" text-anchor="middle" fill="#111">4</text>
<text x="870.0" y="340" font-size="12" text-anchor="middle" fill="#666">reaction progress</text>
<text x="70" y="362" font-size="12" fill="#666">R = reactants, P = products. All four share one y axis.</text>
</svg>