<svg xmlns="http://www.w3.org/2000/svg" viewBox="0 0 1010 370" width="1010" height="370" font-family="Helvetica, Arial, sans-serif">
<rect width="1010" height="370" fill="#ffffff"/>
<line x1="60" x2="990" y1="290.0" y2="290.0" stroke="#e3e8ea"/>
<text x="54" y="295.0" font-size="13" text-anchor="end" fill="#333">0</text>
<line x1="60" x2="990" y1="257.5" y2="257.5" stroke="#e3e8ea"/>
<text x="54" y="262.5" font-size="13" text-anchor="end" fill="#333">20</text>
<line x1="60" x2="990" y1="225.0" y2="225.0" stroke="#e3e8ea"/>
<text x="54" y="230.0" font-size="13" text-anchor="end" fill="#333">40</text>
<line x1="60" x2="990" y1="192.5" y2="192.5" stroke="#e3e8ea"/>
<text x="54" y="197.5" font-size="13" text-anchor="end" fill="#333">60</text>
<line x1="60" x2="990" y1="160.0" y2="160.0" stroke="#e3e8ea"/>
<text x="54" y="165.0" font-size="13" text-anchor="end" fill="#333">80</text>
<line x1="60" x2="990" y1="127.5" y2="127.5" stroke="#e3e8ea"/>
<text x="54" y="132.5" font-size="13" text-anchor="end" fill="#333">100</text>
<line x1="60" x2="990" y1="95.0" y2="95.0" stroke="#e3e8ea"/>
<text x="54" y="100.0" font-size="13" text-anchor="end" fill="#333">120</text>
<line x1="60" x2="990" y1="62.5" y2="62.5" stroke="#e3e8ea"/>
<text x="54" y="67.5" font-size="13" text-anchor="end" fill="#333">140</text>
<line x1="60" x2="990" y1="30.0" y2="30.0" stroke="#e3e8ea"/>
<text x="54" y="35.0" font-size="13" text-anchor="end" fill="#333">160</text>
<line x1="60" x2="60" y1="30" y2="290" stroke="#333" stroke-width="1.5"/>
<text x="16" y="160.0" font-size="14" fill="#333" transform="rotate(-90 16 160.0)" text-anchor="middle">Free energy (G)</text>
<path d="M88,127.5 L116,127.5 C146,127.5 150.0,108.0 180.0,108.0 C210.0,108.0 214,160.0 244,160.0 L272,160.0" fill="none" stroke="#0e5f68" stroke-width="3"/>
<text x="90" y="119.5" font-size="13" fill="#222">R 100</text>
<text x="270" y="152.0" font-size="13" text-anchor="end" fill="#222">P 80</text>
<text x="180.0" y="100.0" font-size="13" text-anchor="middle" fill="#222">peak 112</text>
<text x="180.0" y="320" font-size="17" font-weight="bold" text-anchor="middle" fill="#111">1</text>
<text x="180.0" y="340" font-size="12" text-anchor="middle" fill="#666">reaction progress</text>
<line x1="304" x2="304" y1="30" y2="290" stroke="#cfd8dc" stroke-dasharray="3 4"/>
<path d="M318,273.8 L346,273.8 C376,273.8 380.0,244.5 410.0,244.5 C440.0,244.5 444,251.0 474,251.0 L502,251.0" fill="none" stroke="#0e5f68" stroke-width="3"/>
<text x="320" y="265.8" font-size="13" fill="#222">R 10</text>
<text x="500" y="243.0" font-size="13" text-anchor="end" fill="#222">P 24</text>
<text x="410.0" y="236.5" font-size="13" text-anchor="middle" fill="#222">peak 28</text>
<text x="410.0" y="320" font-size="17" font-weight="bold" text-anchor="middle" fill="#111">2</text>
<text x="410.0" y="340" font-size="12" text-anchor="middle" fill="#666">reaction progress</text>
<line x1="534" x2="534" y1="30" y2="290" stroke="#cfd8dc" stroke-dasharray="3 4"/>
<path d="M548,176.2 L576,176.2 C606,176.2 610.0,70.6 640.0,70.6 C670.0,70.6 674,225.0 704,225.0 L732,225.0" fill="none" stroke="#0e5f68" stroke-width="3"/>
<text x="550" y="168.2" font-size="13" fill="#222">R 70</text>
<text x="730" y="217.0" font-size="13" text-anchor="end" fill="#222">P 40</text>
<text x="640.0" y="62.6" font-size="13" text-anchor="middle" fill="#222">peak 135</text>
<text x="640.0" y="320" font-size="17" font-weight="bold" text-anchor="middle" fill="#111">3</text>
<text x="640.0" y="340" font-size="12" text-anchor="middle" fill="#666">reaction progress</text>
<line x1="764" x2="764" y1="30" y2="290" stroke="#cfd8dc" stroke-dasharray="3 4"/>
<path d="M778,192.5 L806,192.5 C836,192.5 840.0,163.2 870.0,163.2 C900.0,163.2 904,169.8 934,169.8 L962,169.8" fill="none" stroke="#0e5f68" stroke-width="3"/>
<text x="780" y="184.5" font-size="13" fill="#222">R 60</text>
<text x="960" y="161.8" font-size="13" text-anchor="end" fill="#222">P 74</text>
<text x="870.0" y="155.2" font-size="13" text-anchor="middle" fill="#222">peak 78</text>
<text x="870.0" y="320" font-size="17" font-weight="bold" text-anchor="middle" fill="#111">4</text>
<text x="870.0" y="340" font-size="12" text-anchor="middle" fill="#666">reaction progress</text>
<text x="70" y="362" font-size="12" fill="#666">R = reactants, P = products. All four share one y axis.</text>
</svg>